<svg xmlns="http://www.w3.org/2000/svg" width="17.219" height="20.592" viewBox="0 0 17.219 20.592">
  <path id="broomley-icon" d="M5.082,24.315c-.513.276-.986.518-1.4.716a1.349,1.349,0,0,0,.635.8A25.878,25.878,0,0,0,3.03,28.685c-.347,1.114-1.5,2.461.145,4.227a8.863,8.863,0,0,1,.42-1.582c.037.46.449.843,1.513.931.57.048,5.943-.79,7.353-4.96.963-2.845-2.348-3.789-3.541-4.037,7.2-2.845,9.537-7.851,7.7-9.843C13.925,10.5,6.988,13.988,2.529,17a5.061,5.061,0,0,0-2.5,4.766c1.164-2.3,5.185-4.656,8.941-6.237-.116,1.385-2.2,5.46-3.885,8.79m6.111,1.833c-.078,2.806-8.086,6.5-6.046,3.305a2.6,2.6,0,0,0-1.237.959c.5-1.4,1.213-3.229,2.013-5.17,1.767-.874,5.34-1.68,5.27.9Zm3.926-12.5c1.139-.114,1.164.812,1.079,1.385-.36,2.422-5.518,6.055-9.514,8.382,1.355-3.207,2.83-6.473,3.884-8.527a20.937,20.937,0,0,1,4.551-1.24" transform="translate(0 -12.319)" fill="#fff"/>
</svg>
