<svg id="Icon_feather-shopping-cart" data-name="Icon feather-shopping-cart" xmlns="http://www.w3.org/2000/svg" width="23" height="22.091" viewBox="0 0 23 22.091">
  <path id="Path_38" data-name="Path 38" d="M13.772,30.886A.886.886,0,1,1,12.886,30,.886.886,0,0,1,13.772,30.886Z" transform="translate(-4.12 -11.182)" fill="#24272b" stroke="#b60036" stroke-linecap="round" stroke-linejoin="round" stroke-width="3"/>
  <path id="Path_39" data-name="Path 39" d="M30.272,30.886A.886.886,0,1,1,29.386,30,.886.886,0,0,1,30.272,30.886Z" transform="translate(-10.545 -11.182)" fill="#24272b" stroke="#b60036" stroke-linecap="round" stroke-linejoin="round" stroke-width="3"/>
  <path id="Path_40" data-name="Path 40" d="M1.5,1.5H5.136L7.573,13.8a1.822,1.822,0,0,0,1.818,1.478h8.836A1.822,1.822,0,0,0,20.045,13.8l1.455-7.7H6.045" fill="none" stroke="#b60036" stroke-linecap="round" stroke-linejoin="round" stroke-width="3"/>
</svg>
