<svg xmlns="http://www.w3.org/2000/svg" width="66.66" height="25" viewBox="0 0 66.66 25">
  <path id="Icon_simple-googlepay" d="M66.66,17.556,57.956,37H55.267l3.23-6.8L52.773,17.556h2.833l4.139,9.694H59.8l4.022-9.694ZM30.505,23.572v7.872h-2.73V12h7.241A6.888,6.888,0,0,1,39.7,13.684a5.3,5.3,0,0,1,0,8.23,6.864,6.864,0,0,1-4.686,1.655H30.505ZM30.5,14.4v6.788h4.577a3.8,3.8,0,0,0,2.7-1.005,3.122,3.122,0,0,0,0-4.752,3.73,3.73,0,0,0-2.7-1.03Zm16.64,3.161a5.712,5.712,0,0,1,4.125,1.45,5.26,5.26,0,0,1,1.508,3.977v8.035H50.52V29.208h-.1a4.457,4.457,0,0,1-3.889,2.236,4.95,4.95,0,0,1-3.472-1.278,4.147,4.147,0,0,1-1.394-3.194,3.931,3.931,0,0,1,1.472-3.216,6.061,6.061,0,0,1,3.93-1.2,6.742,6.742,0,0,1,3.452.8V22.8a2.833,2.833,0,0,0-.972-2.166,3.264,3.264,0,0,0-2.272-.894,3.567,3.567,0,0,0-3.122,1.73l-2.075-1.355a5.7,5.7,0,0,1,5.063-2.555Zm-3.047,9.471a1.98,1.98,0,0,0,.783,1.6,2.814,2.814,0,0,0,1.83.639,3.7,3.7,0,0,0,2.647-1.144,3.639,3.639,0,0,0,1.172-2.686,4.67,4.67,0,0,0-3.072-.914,3.869,3.869,0,0,0-2.394.722,2.16,2.16,0,0,0-.967,1.786ZM11.335,12A11.016,11.016,0,0,1,18.917,14.9l-3.233,3.172a6.222,6.222,0,0,0-4.35-1.667,6.766,6.766,0,0,0-6.363,4.583,6.53,6.53,0,0,0,0,4.255,6.766,6.766,0,0,0,6.363,4.583A6.921,6.921,0,0,0,15.2,28.763a5.151,5.151,0,0,0,2.261-3.38H11.335V21.106H22.025a13.094,13.094,0,0,1,.194,2.258,10.762,10.762,0,0,1-3.372,8.174,10.969,10.969,0,0,1-7.513,2.683A11.36,11.36,0,0,1,1.208,28.1a10.913,10.913,0,0,1,0-9.977A11.36,11.36,0,0,1,11.332,12Z" transform="translate(-0.001 -11.999)"/>
</svg>
