<svg xmlns="http://www.w3.org/2000/svg" width="68.22" height="28" viewBox="0 0 68.22 28">
  <path id="Icon_awesome-apple-pay" d="M12.462,12.371A4.185,4.185,0,0,1,9.1,13.959a4.725,4.725,0,0,1,1.2-3.475,5.011,5.011,0,0,1,3.336-1.716,5.071,5.071,0,0,1-1.183,3.6M13.624,14.2c-1.855-.107-3.443,1.055-4.317,1.055-.9,0-2.238-1-3.709-.97A5.478,5.478,0,0,0,.951,17.114c-2,3.443-.522,8.527,1.418,11.33.949,1.386,2.078,2.91,3.571,2.856,1.418-.053,1.972-.917,3.677-.917s2.217.917,3.709.9c1.545-.032,2.515-1.386,3.464-2.771a12.049,12.049,0,0,0,1.545-3.187,5.036,5.036,0,0,1-3.016-4.573,5.127,5.127,0,0,1,2.441-4.3A5.268,5.268,0,0,0,13.624,14.2m10.7-3.858V31.119h3.23v-7.1H32.02a6.592,6.592,0,0,0,6.939-6.853,6.516,6.516,0,0,0-6.832-6.821h-7.8Zm3.23,2.718h3.72c2.8,0,4.4,1.492,4.4,4.114s-1.6,4.136-4.413,4.136H27.554ZM44.842,31.279A5.322,5.322,0,0,0,49.6,28.625h.064v2.494h2.984V20.78c0-3-2.4-4.935-6.086-4.935-3.421,0-5.958,1.961-6.054,4.647h2.91a2.837,2.837,0,0,1,3.048-2.121c1.972,0,3.08.917,3.08,2.611v1.151l-4.029.245c-3.741.224-5.766,1.759-5.766,4.423C39.758,29.488,41.847,31.279,44.842,31.279Zm.874-2.462c-1.716,0-2.814-.831-2.814-2.089,0-1.311,1.055-2.068,3.07-2.185l3.581-.224v1.172C49.553,27.431,47.9,28.817,45.716,28.817Zm10.925,7.951c3.144,0,4.626-1.2,5.915-4.839l5.66-15.881H64.934L61.139,28.316h-.064L57.281,16.048H53.913L59.37,31.172l-.3.917a2.566,2.566,0,0,1-2.718,2.164c-.256,0-.746-.032-.949-.053v2.494A11.173,11.173,0,0,0,56.641,36.768Z" transform="translate(0.004 -8.768)"/>
</svg>
