<svg xmlns="http://www.w3.org/2000/svg" width="41.594" height="41.593" viewBox="0 0 41.594 41.593">
  <path id="instagram" d="M20.8,41.594A20.8,20.8,0,0,1,12.7,1.634a20.8,20.8,0,0,1,16.19,38.325A20.668,20.668,0,0,1,20.8,41.594Zm0-31.126c-1.893,0-3.574.028-4.386.073A6.378,6.378,0,0,0,11.956,12.2a6,6,0,0,0-1.717,4.328c-.1,1.713-.1,6.81,0,8.523a5.975,5.975,0,0,0,1.717,4.328,6.4,6.4,0,0,0,4.455,1.669c.812.045,2.492.073,4.386.073s3.575-.028,4.387-.073a6.348,6.348,0,0,0,4.455-1.669,6.022,6.022,0,0,0,1.717-4.328c.1-1.712.1-6.807,0-8.519a5.983,5.983,0,0,0-1.717-4.328,6.391,6.391,0,0,0-4.455-1.669C24.371,10.5,22.69,10.468,20.8,10.468Zm1.888,18.809h0c-.4,0-.786,0-1.126-.007-.28,0-.54-.005-.759-.005s-.472,0-.741,0c-.333,0-.707.007-1.095.007a15.691,15.691,0,0,1-4.431-.426,3.538,3.538,0,0,1-2.02-1.964c-.476-1.167-.45-3.687-.433-5.354,0-.269.005-.521.005-.734s0-.458-.005-.72c-.017-1.674-.041-4.2.433-5.369a3.539,3.539,0,0,1,2.02-1.964,15.41,15.41,0,0,1,4.39-.427c.4,0,.781,0,1.119.007.278,0,.539.005.759.005s.471,0,.741,0c.333,0,.707-.007,1.1-.007a15.694,15.694,0,0,1,4.432.426,3.538,3.538,0,0,1,2.021,1.964c.476,1.167.45,3.687.433,5.355,0,.269-.005.521-.005.735s0,.465.005.733c.017,1.671.044,4.194-.433,5.356a3.539,3.539,0,0,1-2.021,1.964A15.355,15.355,0,0,1,22.685,29.277ZM20.8,15.5a5.5,5.5,0,0,0-3.857,1.549,5.2,5.2,0,0,0,0,7.495,5.578,5.578,0,0,0,7.715,0,5.2,5.2,0,0,0,0-7.495A5.5,5.5,0,0,0,20.8,15.5Zm5.674-1.453a1.236,1.236,0,1,0,1.271,1.236A1.256,1.256,0,0,0,26.474,14.048ZM20.8,24.241A3.445,3.445,0,1,1,24.343,20.8,3.5,3.5,0,0,1,20.8,24.241Z"/>
</svg>
