<svg xmlns="http://www.w3.org/2000/svg" width="35.222" height="33.849" viewBox="0 0 35.222 33.849">
  <g id="shopping-cart" transform="translate(2.5 2.5)">
    <path id="Path_38" data-name="Path 38" d="M14.678,31.339A1.339,1.339,0,1,1,13.339,30,1.339,1.339,0,0,1,14.678,31.339Z" transform="translate(-2.36 -3.83)" fill="#24272b" stroke="#000" stroke-linecap="round" stroke-linejoin="round" stroke-width="5"/>
    <path id="Path_39" data-name="Path 39" d="M31.178,31.339A1.339,1.339,0,1,1,29.839,30,1.339,1.339,0,0,1,31.178,31.339Z" transform="translate(-3.634 -3.83)" fill="#24272b" stroke="#000" stroke-linecap="round" stroke-linejoin="round" stroke-width="5"/>
    <path id="Path_40" data-name="Path 40" d="M1.5,1.5H6.995l3.682,18.579a2.754,2.754,0,0,0,2.747,2.234H26.777a2.754,2.754,0,0,0,2.747-2.234l2.2-11.642H8.369" transform="translate(-1.5 -1.5)" fill="none" stroke="#000" stroke-linecap="round" stroke-linejoin="round" stroke-width="5"/>
  </g>
</svg>
