<svg xmlns="http://www.w3.org/2000/svg" width="41.594" height="41.593" viewBox="0 0 41.594 41.593">
  <path id="twiter" d="M20.8,41.594A20.8,20.8,0,0,1,12.7,1.634a20.8,20.8,0,0,1,16.19,38.325A20.668,20.668,0,0,1,20.8,41.594Zm-12.411-13h0a14.263,14.263,0,0,0,7.8,2.3A14.687,14.687,0,0,0,22.4,29.578a13.716,13.716,0,0,0,4.546-3.408,15.012,15.012,0,0,0,3.734-9.781c0-.222-.005-.443-.016-.657a10.337,10.337,0,0,0,2.541-2.641,10.315,10.315,0,0,1-2.924.8,5.091,5.091,0,0,0,2.24-2.82,10.114,10.114,0,0,1-3.235,1.237A5.091,5.091,0,0,0,20.478,15.8a5.017,5.017,0,0,0,.131,1.162,14.474,14.474,0,0,1-10.5-5.328,5.1,5.1,0,0,0,1.584,6.807A5.015,5.015,0,0,1,9.379,17.8v.063a5.108,5.108,0,0,0,4.087,5,5.1,5.1,0,0,1-1.341.179,4.826,4.826,0,0,1-.958-.094,5.1,5.1,0,0,0,4.761,3.54A10.147,10.147,0,0,1,9.6,28.667,10.385,10.385,0,0,1,8.385,28.593Z"/>
</svg>
