<svg xmlns="http://www.w3.org/2000/svg" width="41.594" height="41.593" viewBox="0 0 41.594 41.593">
  <path id="youtube" d="M20.8,41.594A20.8,20.8,0,0,1,12.7,1.634a20.8,20.8,0,0,1,16.19,38.325A20.668,20.668,0,0,1,20.8,41.594Zm0-30.4c-.084,0-8.452.006-10.53.567a3.386,3.386,0,0,0-2.382,2.4,35.7,35.7,0,0,0-.563,6.529,35.7,35.7,0,0,0,.563,6.529,3.313,3.313,0,0,0,2.382,2.36c2.078.561,10.446.567,10.53.567s8.451-.006,10.529-.567a3.313,3.313,0,0,0,2.382-2.36,35.7,35.7,0,0,0,.563-6.529,35.7,35.7,0,0,0-.563-6.529,3.386,3.386,0,0,0-2.382-2.4C29.249,11.2,20.881,11.2,20.8,11.2ZM18.041,24.7V16.683l7.043,4.007L18.042,24.7Z"/>
</svg>
